<?xml version="1.0" encoding="UTF-8"?>
<!-- Generator: Adobe Illustrator 25.2.1, SVG Export Plug-In . SVG Version: 6.00 Build 0)  -->
<svg xmlns="http://www.w3.org/2000/svg" xmlns:xlink="http://www.w3.org/1999/xlink" version="1.1" id="Capa_1" x="0px" y="0px" viewBox="0 0 512 512" style="enable-background:new 0 0 512 512;" xml:space="preserve" width="512" height="512">
<g>
	<path style="fill:#FFFFFF;" d="M255.987,512c-1.014,0-2.054-0.008-3.078-0.051c-1.344-0.005-2.521-0.025-3.754-0.051h-0.3   c-0.605,0-1.25-0.03-1.871-0.074c-17.321-0.612-34.669-3.075-51.562-7.319c-4.074-0.999-8.283-2.168-12.779-3.558l-3.571-1.151   c-21.504-7.042-41.872-16.967-60.674-29.548c-21.072-14.143-39.711-31.24-55.431-50.838c-0.31-0.351-0.605-0.712-0.877-1.08   c-5.868-7.292-11.447-15.211-16.596-23.552c-0.066-0.102-0.134-0.201-0.198-0.302c-1.316-2.061-2.549-4.176-3.779-6.293   l-0.122-0.211c-0.318-0.541-0.643-1.105-0.956-1.69l-0.729-1.286C19.219,348.32,8.382,306.611,8.382,264.397   c0-100.116,59.681-189.791,152.046-228.462c0.178-0.074,0.358-0.146,0.539-0.214c20.983-8.758,43.046-14.54,65.62-17.196   c12.276-4.078,25.207-6.144,38.471-6.144c11.988,0,23.718,1.684,34.959,5.013c11.579-4.882,26.844-7.472,41.724-9.695   c2.635-0.394,4.88-0.726,6.527-1.024c23.092-4.189,46.66-6.431,70.052-6.662L420.784,0c14.764,0,31.749,1.381,45.781,11.629   c9.355,6.83,12.095,14.562,12.746,19.846c1.243,10.081-3.947,20.191-13.882,27.036c-13.915,9.582-30.392,10.555-44.873,10.591   c11.44,6.082,22.566,14.174,28.986,26.521c3.942,7.589,4.359,14.037,3.54,18.937c32.654,42.934,50.536,95.767,50.536,149.839   c0,47.054-13.305,92.883-38.479,132.535c-0.086,0.137-0.178,0.275-0.269,0.409c-4.717,7.419-9.747,14.479-14.954,20.991   c0,0-2.473,3.118-2.536,3.195c-17.465,21.199-38.016,39.168-61.081,53.403c-1.543,0.986-3.223,2.031-5.025,3.055   c-0.107,0.061-0.216,0.12-0.326,0.178c-11.078,6.517-22.904,12.25-35.154,17.046c0,0-3.347,1.284-4.219,1.609   c-0.198,0.071-0.396,0.14-0.595,0.206c-3.779,1.367-7.243,2.539-10.58,3.578c-12.398,3.906-25.237,6.852-38.11,8.735   c-1.182,0.176-2.384,0.348-3.614,0.498c-7.625,1.039-15.783,1.723-24.017,2.003c-1.309,0.051-2.75,0.081-4.16,0.107   C259.166,511.995,257.562,512,255.987,512z"/>
	<g>
		<path style="fill:#FFCC7A;" d="M489.331,264.397c0,45.7-13.247,88.251-36.045,124.166l-0.026,0.026    c-4.398,6.949-9.109,13.611-14.21,19.988c-0.781,0.989-1.588,2.004-2.395,3.019c-16.188,19.649-35.472,36.618-57.23,50.047    c-1.509,0.963-2.967,1.874-4.528,2.759h-0.026c-10.644,6.298-21.809,11.711-33.443,16.266c-1.301,0.495-2.629,1.015-3.956,1.51    h-0.026c-3.436,1.249-6.845,2.42-10.358,3.513c-11.555,3.643-23.475,6.402-35.733,8.198c-1.067,0.156-2.134,0.312-3.227,0.442    c-7.443,1.015-14.99,1.64-22.668,1.9c-1.327,0.052-2.681,0.078-4.008,0.104c-1.353,0.052-2.759,0.052-4.138,0.052    c-0.885,0-1.796,0-2.681-0.052h-0.182c-1.301,0-2.55-0.026-3.878-0.052h-0.39c-0.338,0-0.703-0.026-1.041-0.052    c-16.708-0.572-32.948-2.941-48.589-6.87c-4.034-0.989-145.612-111.492-145.872-111.961    c-18.686-33.442-29.356-71.986-29.356-113.002c0-96.372,58.791-179.028,142.462-214.058c0,0,0,0,0.026,0    c19.883-8.354,41.146-14.002,63.398-16.474c1.093-0.13,2.16-0.26,3.279-0.312h0.026c7.522-0.781,15.121-1.145,22.798-1.145    c2.733,0,5.439,0.026,8.12,0.13c0,0,0,0,0.026,0C389.836,36.806,489.331,139.007,489.331,264.397z"/>
		<path style="fill:#4F1F37;" d="M276.819,225.187c-0.964,0.161-1.718,0.669-2.436,0.664c-1.097-0.008-2.554-2.147-2.99-1.993    c-1.315-16.366-3.385-31.67-5.685-47.878c-4.28-30.29-10.858-65.489-27.065-96.827c-0.66-1.257-0.157-2.833,1.126-3.494    c1.283-0.66,2.833-0.157,3.493,1.1c16.592,32.056,23.262,67.773,27.581,98.505c1.81,12.629,3.283,25.319,4.496,38.043    C275.668,216.734,276.54,221.732,276.819,225.187z"/>
		<g>
			<path style="fill:#FFEAE8;" d="M419.802,15.627c13.55-0.134,28.104,0.741,38.883,8.612c3.148,2.299,5.995,5.404,6.456,9.142     c0.605,4.903-3.054,9.383-7.244,12.27c-10.493,7.228-24.384,7.852-37.386,7.835c-21.352-0.028-42.71-1.058-63.969-3.082     c-18.761-1.786-42.871-2.056-60.151-9.122c2.841-13.137,44.057-17.075,55.995-19.242     C374.586,18.01,397.175,15.851,419.802,15.627z"/>
			<path style="fill:#FFEAE8;" d="M406.077,78.739c12.245,5.592,24.922,12.51,30.938,24.084c1.757,3.381,2.866,7.354,1.535,10.887     c-1.746,4.634-7.128,7.093-12.244,7.905c-12.811,2.032-25.592-3.267-37.275-8.763c-19.185-9.027-37.908-18.95-56.077-29.721     c-16.034-9.505-37.586-19.91-49.822-33.506c8.692-10.536,47.589,3.322,59.335,6.42C364.309,61.806,385.627,69.4,406.077,78.739z"/>
			<path style="fill:#FFEAE8;" d="M372.488,123.122c9.76,8.993,19.486,19.371,21.322,32.138c0.536,3.729,0.258,7.823-2.191,10.762     c-3.212,3.855-9.15,4.553-14.283,3.773c-12.853-1.953-23.22-10.831-32.477-19.564c-15.202-14.34-29.665-29.39-43.317-45.073     c-12.049-13.84-29.038-30.2-36.107-46.761c11.789-7.336,44.1,17.536,54.222,24.019     C338.479,94.472,356.189,108.103,372.488,123.122z"/>
			<path style="fill:#FFEAE8;" d="M326.481,167.555c5.623,11.749,10.679,24.77,7.453,37.254c-0.942,3.646-2.785,7.346-6.205,9.218     c-4.487,2.455-10.293,1.029-14.778-1.486c-11.23-6.298-17.464-18.151-22.719-29.483c-8.63-18.609-16.296-37.617-22.962-56.93     c-5.882-17.043-15.398-38.149-15.585-55.978c13.831-2.69,34.342,31.66,41.273,41.207     C305.849,129.109,317.091,147.934,326.481,167.555z"/>
			<path style="fill:#FFEAE8;" d="M261.208,184.113c0.201,12.874-0.656,26.693-8.893,36.863c-2.406,2.971-5.662,5.647-9.594,6.052     c-5.158,0.531-9.89-2.985-12.947-6.992c-7.655-10.034-8.373-23.236-8.413-35.589c-0.065-20.285,0.924-40.566,2.961-60.745     c1.797-17.808,1.974-40.711,9.336-57.064c13.841,2.817,18.169,42.009,20.503,53.37     C258.5,141.134,260.873,162.613,261.208,184.113z"/>
			<path style="fill:#FFEAE8;" d="M202.849,186.968c-3.945,12.291-9.203,25.174-20.332,32.449c-3.251,2.125-7.218,3.724-11.1,2.968     c-5.094-0.992-8.48-5.705-10.11-10.399c-4.081-11.754-0.524-24.507,3.407-36.257c6.456-19.294,13.917-38.279,22.344-56.864     c7.437-16.4,14.965-38.112,27.245-51.516c12.304,6.691,3.841,45.187,2.418,56.659     C214.074,145.343,209.437,166.441,202.849,186.968z"/>
			<path style="fill:#FFEAE8;" d="M136.3,170.29c-9.206,9.389-19.869,18.764-33.256,20.676c-3.91,0.559-8.226,0.348-11.384-1.939     c-4.143-3-5.035-8.631-4.35-13.517c1.714-12.234,10.782-22.198,19.727-31.106c14.689-14.629,30.143-28.564,46.286-41.739     c14.246-11.626,31.012-27.979,48.254-34.912c8.034,11.101-17.285,42.119-23.838,51.819     C165.549,137.61,151.674,154.611,136.3,170.29z"/>
			<path style="fill:#FF794F;" d="M167.044,92.99c10.028-26.216,31.458-48.278,58.161-59.877     c26.703-11.599,61.244-13.351,88.769-3.448c-0.83,8.638-3.946,15.546-9.759,22.099C270.736,89.508,217.852,103.891,167.044,92.99     z"/>
		</g>
		<g>
			<g>
				<path style="fill:#4F1F37;" d="M188.583,486.028c-1.145-0.365-2.316-0.755-3.461-1.119c-1.692-4.737-3.331-9.499-4.997-14.288      c-9.083-26.233-17.827-52.285-25.244-78.284c-0.442-1.588-0.885-3.175-1.327-4.737c-0.625-2.238-1.249-4.45-1.822-6.689      c-0.729-2.68-1.431-5.335-2.134-8.016c-8.432-32.688-14.392-65.349-15.928-98.219c-0.182-3.435-0.286-6.87-0.364-10.306      c-0.078-3.878-0.078-7.755-0.026-11.659c0.052-2.993,0.13-6.012,0.26-9.005l2.889,0.13c-0.13,2.759-0.208,5.543-0.234,8.302      c-0.078,3.566-0.078,7.105-0.026,10.644c0.078,4.138,0.208,8.302,0.416,12.44c3.201,64.855,23.657,129.085,46.273,194.461      C184.757,475.15,186.657,480.615,188.583,486.028z"/>
				<path style="fill:#4F1F37;" d="M153.517,379.885l-2.516,1.442c-25.226-43.917-42.742-91.421-52.058-141.196l2.85-0.532      C111.049,289.049,128.452,336.251,153.517,379.885z"/>
				<path style="fill:#4F1F37;" d="M156.555,390.705l-2.073,2.03c-36.058-36.757-64.512-81.731-82.281-130.053l2.723-1.001      C92.551,309.622,120.779,354.238,156.555,390.705z"/>
				<g>
					<path style="fill:#FFFFFF;" d="M92.684,247.32c0.826,3.723,7.405,5.43,14.695,3.813c7.29-1.617,12.531-5.946,11.705-9.668       c-0.826-3.723-7.405-5.43-14.695-3.813C97.099,239.269,91.859,243.598,92.684,247.32z"/>
					<path style="fill:#FFFFFF;" d="M120.729,248.542c0.826,3.723,7.405,5.43,14.695,3.813c7.29-1.617,12.531-5.945,11.705-9.668       c-0.826-3.723-7.405-5.43-14.695-3.813C125.144,240.491,119.904,244.82,120.729,248.542z"/>
					<path style="fill:#FFFFFF;" d="M129.223,270.902c0.826,3.723,7.405,5.43,14.695,3.813c7.29-1.617,12.531-5.945,11.705-9.668       c-0.826-3.723-7.405-5.43-14.695-3.813C133.638,262.851,128.398,267.18,129.223,270.902z"/>
					<path style="fill:#FFFFFF;" d="M150.063,285.018c0.826,3.723,7.405,5.43,14.695,3.813c7.29-1.617,12.531-5.945,11.705-9.668       c-0.826-3.723-7.405-5.43-14.695-3.813C154.478,276.967,149.238,281.295,150.063,285.018z"/>
					<path style="fill:#FFFFFF;" d="M101.261,266.385c0.826,3.723,7.405,5.43,14.695,3.813c7.29-1.617,12.531-5.945,11.705-9.668       c-0.826-3.723-7.405-5.43-14.695-3.813C105.676,258.334,100.435,262.662,101.261,266.385z"/>
					<path style="fill:#FFFFFF;" d="M73.956,283.215c0.826,3.723,7.405,5.43,14.695,3.813c7.29-1.617,12.531-5.945,11.705-9.668       c-0.826-3.723-7.405-5.43-14.695-3.813C78.371,275.164,73.131,279.492,73.956,283.215z"/>
					<path style="fill:#FFFFFF;" d="M102.23,291.636c0.826,3.723,7.405,5.43,14.695,3.813c7.29-1.617,12.531-5.945,11.705-9.668       c-0.826-3.723-7.405-5.43-14.695-3.813C106.645,283.585,101.405,287.914,102.23,291.636z"/>
					<path style="fill:#FFFFFF;" d="M58.595,305.894c0.826,3.723,7.405,5.43,14.695,3.813c7.29-1.617,12.531-5.946,11.705-9.668       c-0.826-3.723-7.405-5.43-14.695-3.813C63.01,297.843,57.77,302.171,58.595,305.894z"/>
					<path style="fill:#FFFFFF;" d="M67.424,264.911c0.826,3.723,7.405,5.43,14.695,3.813c7.29-1.617,12.531-5.945,11.705-9.668       c-0.826-3.723-7.405-5.43-14.695-3.813C71.839,256.859,66.598,261.188,67.424,264.911z"/>
					<path style="fill:#FFFFFF;" d="M35.019,273.809c0.826,3.723,7.405,5.43,14.695,3.813c7.29-1.617,12.531-5.945,11.705-9.668       c-0.826-3.723-7.405-5.43-14.695-3.813C39.434,265.758,34.193,270.087,35.019,273.809z"/>
					<path style="fill:#FFFFFF;" d="M59.42,245.321c0.826,3.723,7.405,5.43,14.695,3.813c7.29-1.617,12.531-5.945,11.705-9.668       c-0.826-3.723-7.405-5.43-14.695-3.813C63.835,237.269,58.595,241.598,59.42,245.321z"/>
					
						<ellipse transform="matrix(0.9763 -0.2165 0.2165 0.9763 -46.3439 31.9763)" style="fill:#FFFFFF;" cx="122.748" cy="227.473" rx="13.521" ry="6.904"/>
					<path style="fill:#FFFFFF;" d="M150.077,253.546c0.826,3.723,7.405,5.43,14.695,3.813c7.29-1.617,12.531-5.945,11.705-9.668       c-0.826-3.723-7.405-5.43-14.695-3.813C154.492,245.495,149.251,249.824,150.077,253.546z"/>
				</g>
			</g>
			<g>
				<g>
					<path style="fill:#4F1F37;" d="M81.929,405.272c-23.868-62.946-25.765-138.729-5.636-225.246l0.779,0.182       c-20.092,86.358-18.206,161.986,5.604,224.781L81.929,405.272z"/>
				</g>
				<path style="fill:#4F1F37;" d="M87.948,171.637c0.791-2.67,1.58-5.479,0.998-8.202c-0.583-2.723-3.035-5.262-5.799-4.919      c-2.324,0.288-3.96,2.382-5.148,4.399c-5.354,9.084-7.067,19.804-8.343,30.27c-1.53,12.55-3.444,25.72-3.055,38.371      c3.155-9.528,9.054-24.257,10.696-29.292C80.814,191.48,84.725,182.512,87.948,171.637z"/>
				<path style="fill:#4F1F37;" d="M43.837,228.106c-1.002-2.598-2.09-5.305-4.213-7.107c-2.123-1.802-5.615-2.318-7.596-0.36      c-1.665,1.646-1.684,4.303-1.396,6.626c1.3,10.464,6.483,20.003,11.857,29.074c6.444,10.877,12.963,22.48,20.989,32.267      c-3.313-9.474-7.625-24.743-9.396-29.735C50.291,248.18,47.919,238.689,43.837,228.106z"/>
				<path style="fill:#4F1F37;" d="M47.834,288.033c-1.002-2.598-2.09-5.305-4.213-7.107c-2.123-1.802-5.615-2.318-7.596-0.36      c-1.665,1.646-1.684,4.303-1.396,6.626c1.3,10.464,6.483,20.003,11.857,29.074c6.444,10.877,12.963,22.48,20.989,32.267      c-3.313-9.474-7.625-24.743-9.396-29.735C54.287,308.107,51.915,298.616,47.834,288.033z"/>
				<path style="fill:#4F1F37;" d="M100.016,214.575c0.789-1.41,1.561-2.906,1.605-4.521c0.044-1.615-0.862-3.371-2.427-3.774      c-0.811-0.209-1.674-0.034-2.462,0.251c-3.351,1.213-5.659,4.238-7.726,7.142c-5.975,8.393-11.573,17.104-16.09,26.378      c-2.236,4.592-4.206,9.319-5.783,14.179c-1.366,4.211-3.125,9.77-3.228,14.67c1.319-2.463,5.835-10.302,7.357-12.878      c2.807-4.748,5.997-9.257,9.277-13.688C87.263,233.252,94.479,224.464,100.016,214.575z"/>
				<path style="fill:#4F1F37;" d="M100.204,271.355c0.789-1.41,1.561-2.906,1.605-4.521c0.044-1.615-0.862-3.371-2.426-3.774      c-0.811-0.209-1.674-0.034-2.462,0.251c-3.351,1.214-5.659,4.238-7.726,7.142c-5.975,8.393-11.574,17.104-16.09,26.378      c-2.236,4.592-4.206,9.319-5.783,14.179c-1.366,4.211-3.125,9.77-3.228,14.67c1.319-2.463,5.835-10.302,7.358-12.878      c2.807-4.749,5.997-9.258,9.276-13.688C87.451,290.032,94.668,281.244,100.204,271.355z"/>
			</g>
		</g>
		<g>
			<g>
				<path style="fill:#FF9280;" d="M276.47,276.004c-3.696,7.6-10.332,15.745-17.567,23.241c-0.599,0.625-1.197,1.223-1.796,1.822      c-2.863,2.863-5.751,5.622-8.588,8.198l-0.182,0.182c-8.77,7.912-16.838,14.184-20.274,16.76      c-1.119,0.859-1.744,1.301-1.744,1.301l2.03,19.909v0.026l0.729,7.027v0.026l0.078,0.833v0.026l0.208,1.9l5.387,52.701v0.026      l0.208,2.004l5.96,58.4c0.208,0.391-1.354,1.64-4.398,3.436c-6.272,3.695-18.92,9.733-35.967,15.537      c-4.034-0.989-8.016-2.108-11.972-3.331c-1.145-0.365-2.316-0.755-3.461-1.119c-20.274-6.637-39.324-16.006-56.709-27.639      c-19.779-13.273-37.476-29.513-52.284-48.069c-0.078-0.052-0.104-0.078-0.156-0.156v-0.026      c-5.882-7.261-11.217-14.886-16.11-22.85c0-0.026-0.052-0.078-0.078-0.104c-1.197-1.874-2.316-3.8-3.435-5.726      c-0.286-0.494-0.598-1.015-0.885-1.561c-0.26-0.469-0.521-0.911-0.781-1.379c9.655,0.182,51.504,0.078,62.643-14.002      c12.648-15.953,46.221-57.516,67.796-72.662c15.98-11.217,32.453-26.442,46.897-39.533c0.469-0.442,0.963-0.885,1.432-1.327      c12.804-11.581,23.917-21.289,31.491-24.724c0.651-0.286,1.275-0.52,1.874-0.703c2.498-0.859,4.528-0.807,6.012,0.286      c0.416,0.312,0.832,0.651,1.249,1.041h0.026c0.911,0.807,1.744,1.692,2.524,2.681c2.941,3.617,5.023,8.458,5.96,14.184      c0,0.052,0,0.13,0.026,0.182C284.096,252.061,282.508,263.59,276.47,276.004z"/>
				<path style="fill:#FF9280;" d="M310.439,346.951c-0.885,0.573-1.405,0.833-1.405,0.833s0.104,0.104,0.286,0.312      c1.926,2.134,12.805,14.834,10.02,28.263c-2.316,11.295-15.954,17.593-15.954,17.593s0.156,0.13,0.442,0.365      c2.16,1.822,11.295,10.696,4.216,24.23c-7.86,15.094-58.739,52.441-71.517,55.277c-0.182,0.052-0.312,0.078-0.468,0.104      c-5.96,0.989-14.158-36.826-20.898-75.031c-0.078-0.416-0.156-0.833-0.234-1.275c-0.052-0.338-0.104-0.651-0.156-0.989      c-0.156-0.807-0.286-1.614-0.442-2.421c-6.376-36.904-11.269-72.689-11.269-72.689l54.861-76.176l7.235-10.02l6.35-8.823      c0,0,0.963-0.312,2.603-0.729c0.208-0.052,0.442-0.13,0.703-0.182c0.599-0.156,1.275-0.312,2.03-0.495      c8.432-1.9,31.751,3.457,38.96,11.16c9.968,10.618,9.303,23.478-0.886,44.741c-3.036,6.337-7.026,11.165-7.365,12.076      c-0.13,0.391-0.156,0.521-0.156,0.547c0,0,3.643,0.677,7.964,3.982c5.908,4.555,15.433,11.113,13.611,21.94      C326.237,335.943,314.5,344.479,310.439,346.951z"/>
				<path style="fill:#4F1F37;" d="M265.598,290.919c-2.368,2.889-4.789,5.621-7.209,8.276c-0.416,0.442-0.807,0.859-1.249,1.301      c-2.811,3.045-5.7,5.934-8.615,8.771c-0.052,0.052-0.13,0.13-0.182,0.182c-5.934,5.7-12.024,11.113-18.296,16.656      c0.26,1.301,0.833,4.684,0.885,10.02c0,0.677,0,1.405-0.026,2.186c-0.052,4.32-0.468,9.707-1.562,16.084      c-0.052,0.312-0.104,0.625-0.182,0.963c-0.078,0.469-0.156,0.963-0.234,1.457c-0.26,1.197-0.494,2.42-0.781,3.696      c-1.406,6.35-3.383,12.726-5.491,18.582c-0.208,0.547-0.416,1.093-0.625,1.64c-2.212,5.934-4.528,11.269-6.428,15.433      c-0.234,0.495-0.469,0.989-0.677,1.458c-0.104,0.208-0.182,0.39-0.26,0.573c-2.004,4.216-3.383,6.793-3.436,6.871l-1.717-0.937      c0.052-0.078,2.108-3.904,4.815-9.916c3.878-8.484,9.109-21.367,11.92-34.119c1.041-4.659,1.692-8.875,2.108-12.648      c1.379-12.466,0-19.883-0.286-21.237c-0.026-0.156-0.052-0.234-0.052-0.234l-0.13-0.572l0.442-0.39      c12.622-11.165,24.568-21.731,35.785-35.316c15.173-18.426,20.3-38.543,14.444-56.683c-0.572-1.718-1.223-3.228-1.926-4.555      c-0.573-1.067-1.171-2.03-1.822-2.863c0.599-0.156,1.275-0.312,2.03-0.495c1.353,1.926,2.603,4.32,3.565,7.313      c1.093,3.357,1.822,6.767,2.186,10.228C284.284,258.544,278.454,275.356,265.598,290.919z"/>
				<path style="fill:#4F1F37;" d="M259.153,372.542c-16.07,0-30.669-16.149-31.348-16.914l1.456-1.299      c0.179,0.201,17.971,19.898,34.917,15.651c17.332-4.331,44.139-23.57,44.408-23.763c0.26-0.17,21.623-14.062,19.097-30.066      c-2.249-14.245-15.855-20.185-18.964-21.367c-11.814,15.01-34.409,26.648-43.61,24.831c-9.616-1.924-7.943-19.786-7.867-20.546      l1.942,0.193c-0.017,0.168-1.582,16.86,6.309,18.436c8.589,1.751,31.016-10.156,42.113-24.663l0.416-0.544l0.652,0.206      c0.183,0.056,18.216,5.919,20.938,23.148c2.724,17.267-19.003,31.39-19.929,31.983c-1.065,0.77-27.334,19.623-45.032,24.048      C262.812,372.333,260.973,372.542,259.153,372.542z"/>
				<path style="fill:#4F1F37;" d="M244.395,413.104c-21.411,0-30.354-15.841-30.45-16.017l1.712-0.938      c0.405,0.737,10.209,17.971,34.893,14.568c25.594-3.533,65.701-19.313,67.828-35.047c2.122-15.702-9.791-27.853-9.911-27.975      l1.38-1.38c0.521,0.521,12.719,12.936,10.465,29.614c-2.281,16.878-42.684,33.022-69.496,36.72      C248.562,412.962,246.422,413.104,244.395,413.104z"/>
				<path style="fill:#4F1F37;" d="M265.347,438.812c-4.031,0-7.495-0.734-10.343-2.196c-4.082-2.099-6.952-5.841-7.68-10.009      c-0.675-3.866,0.512-8.064,3.257-11.518c1.304-1.642,2.909-3.088,4.768-4.303c0.452-0.292,1.058-0.168,1.351,0.285      c0.295,0.452,0.168,1.057-0.283,1.352c-1.685,1.098-3.134,2.404-4.308,3.881c-2.397,3.017-3.44,6.651-2.861,9.968      c0.623,3.568,3.108,6.786,6.649,8.606c3.643,1.871,8.481,2.42,14.379,1.634c9.875-1.316,19.763-5.604,30.228-13.109      c0.441-0.315,1.05-0.211,1.362,0.224c0.314,0.44,0.213,1.047-0.224,1.362c-10.733,7.696-20.908,12.098-31.108,13.46      C268.714,438.69,266.984,438.812,265.347,438.812z"/>
				<path style="fill:#4F1F37;" d="M265.155,235.329l-0.026,0.026v0.026c-0.416,1.015-0.911,2.004-1.484,2.993      c-1.483,2.472-3.357,4.815-5.725,6.975l-0.026,0.026c-1.796,1.717-3.852,3.357-6.22,4.919c-2.941,1.978-6.871,4.216-11.295,4.32      c-0.078,0.026-0.156,0.026-0.26,0.026c-2.863,0-6.064-1.171-8.094-3.435c0.468-0.443,0.963-0.885,1.431-1.327      c1.692,1.9,4.476,2.888,6.897,2.785c3.904-0.078,7.521-2.16,10.254-3.982c5.205-3.487,8.927-7.183,11.347-11.321      c2.316-3.904,3.357-8.224,2.993-12.206c0.651-0.286,1.275-0.52,1.874-0.703C267.263,227.964,266.665,231.737,265.155,235.329z"/>
				<path style="fill:#4F1F37;" d="M291.111,310.559l-1.632-1.073c1.599-2.432,2.287-5.307,1.888-7.886      c-0.431-2.78-2.145-5.213-4.474-6.349c-1.976-0.961-4.477-1.111-7.654-0.467c-7.846,1.596-15.999,7.797-19.829,15.081      l-1.728-0.91c4.149-7.889,12.656-14.352,21.168-16.082c3.61-0.737,6.52-0.531,8.897,0.625c2.896,1.411,5.022,4.402,5.549,7.803      C293.768,304.352,292.971,307.728,291.111,310.559z"/>
				<path style="fill:#4F1F37;" d="M240.546,365.258l-0.862-1.749c3.078-1.517,5.421-4.547,6.116-7.907      c0.695-3.357-0.254-7.07-2.478-9.683c-1.977-2.323-4.918-3.85-7.514-5.195c-0.86-0.447-1.944-0.976-3.028-1.505      c-1.107-0.539-2.214-1.08-3.09-1.535l0.899-1.733c0.864,0.45,1.956,0.981,3.046,1.515c1.101,0.536,2.2,1.073,3.073,1.525      c2.754,1.428,5.876,3.047,8.101,5.663c2.604,3.062,3.717,7.411,2.902,11.345C246.897,359.936,244.152,363.484,240.546,365.258z"/>
				<path style="fill:#4F1F37;" d="M222.38,405.726l-0.684-1.83c1.007-0.376,1.716-1.484,2.162-2.288      c3.734-6.717,2.745-15.768-2.352-21.519l1.462-1.296c5.627,6.354,6.72,16.347,2.596,23.766      C224.967,403.63,223.989,405.124,222.38,405.726z"/>
				<path style="fill:#4F1F37;" d="M279.489,417.556c-0.859-3.045-2.395-5.127-4.581-6.22c-1.275-0.625-2.733-0.885-4.216-0.885      c-3.774,0-7.938,1.614-10.983,2.811c-4.789,1.9-7.495,4.294-8.224,7.417c-0.755,3.097,0.703,6.142,2.238,9.005      c0.885,1.639,2.238,4.138,4.632,5.101c0.807,0.312,1.64,0.442,2.472,0.442c1.067,0,2.134-0.208,3.097-0.442      c2.342-0.546,4.659-1.327,6.871-2.316c1.874-0.833,4.555-2.186,6.454-4.476C279.645,425.129,280.504,421.121,279.489,417.556z       M275.767,426.743c-1.639,1.978-4.086,3.201-5.777,3.956c-2.082,0.937-4.294,1.665-6.506,2.186      c-1.509,0.364-3.071,0.625-4.398,0.078c-1.613-0.651-2.655-2.368-3.643-4.216c-1.431-2.629-2.654-5.179-2.056-7.625      c0.573-2.42,2.889-4.398,7.027-6.038c3.93-1.535,9.864-3.852,13.611-2.004c1.718,0.859,2.889,2.499,3.591,4.997      C278.448,421.043,277.746,424.374,275.767,426.743z"/>
			</g>
			<path style="fill:#4F1F37;" d="M265.357,438.792v0.026l-2.863,20.404l-0.365,2.499c0.026-0.026,0.078-0.052,0.104-0.052     c-2.342,11.607-4.919,23.162-7.782,34.665c-1.301,0-2.55-0.026-3.878-0.052h-0.39c-0.338,0-0.703-0.026-1.041-0.052     c2.525-10.176,4.867-20.378,6.975-30.658c0.052-0.026,0.078-0.052,0.104-0.078l0.338-2.29l3.8-24.828l0.078-0.547     L265.357,438.792z"/>
		</g>
		<g>
			<g>
				<path style="fill:#4F1F37;" d="M428.432,226.582c-1.9,2.03-3.774,4.06-5.622,6.142c-2.368,2.655-4.685,5.335-6.975,8.042      c-2.655,3.175-5.283,6.402-7.808,9.681c-39.949,51.166-66.442,113.158-92.025,177.44c-8.796,22.069-17.281,43.801-24.646,66      c-1.067,0.156-2.134,0.312-3.227,0.442c7.495-22.746,16.188-44.946,25.167-67.51c10.28-25.817,20.69-51.244,32.089-75.759      c0.677-1.509,1.353-2.993,2.082-4.476c0.963-2.082,1.952-4.164,2.967-6.246c1.197-2.499,2.394-4.971,3.618-7.443      c14.991-30.294,31.829-58.921,52.129-84.79c2.108-2.707,4.268-5.387,6.48-8.016c2.472-2.993,4.997-5.934,7.599-8.823      c1.978-2.238,4.008-4.476,6.064-6.662L428.432,226.582z"/>
				<path style="fill:#4F1F37;" d="M352.467,340.733l-2.847-0.552c9.6-49.728,27.38-97.135,52.851-140.901l2.505,1.46      C379.671,244.221,362.003,291.324,352.467,340.733z"/>
				<path style="fill:#4F1F37;" d="M347.696,350.909l-2.895,0.182c-3.279-51.386,4.568-104.023,22.691-152.214l2.715,1.021      C352.226,247.709,344.441,299.927,347.696,350.909z"/>
				<g>
					<path style="fill:#FFFFFF;" d="M393.035,200.633c-1.807,3.358,2.058,8.949,8.633,12.488c6.575,3.54,13.371,3.687,15.178,0.329       c1.807-3.357-2.058-8.949-8.633-12.488C401.638,197.422,394.842,197.275,393.035,200.633z"/>
					<path style="fill:#FFFFFF;" d="M413.467,219.883c-1.807,3.358,2.058,8.949,8.633,12.488c6.575,3.539,13.371,3.687,15.178,0.329       c1.807-3.358-2.058-8.949-8.633-12.488C422.07,216.672,415.275,216.525,413.467,219.883z"/>
					<path style="fill:#FFFFFF;" d="M405.287,242.359c-1.807,3.358,2.058,8.949,8.633,12.488c6.575,3.54,13.371,3.687,15.178,0.329       c1.807-3.358-2.058-8.949-8.633-12.488C413.89,239.149,407.094,239.002,405.287,242.359z"/>
					<path style="fill:#FFFFFF;" d="M411.839,266.662c-1.807,3.358,2.058,8.949,8.633,12.488c6.575,3.54,13.371,3.687,15.178,0.33       c1.807-3.358-2.058-8.949-8.633-12.488C420.442,263.452,413.646,263.304,411.839,266.662z"/>
					<path style="fill:#FFFFFF;" d="M387.071,220.669c-1.807,3.358,2.058,8.949,8.633,12.488c6.575,3.539,13.371,3.687,15.178,0.329       c1.807-3.357-2.058-8.949-8.633-12.488C395.674,217.459,388.878,217.311,387.071,220.669z"/>
					<path style="fill:#FFFFFF;" d="M355.404,215.568c-1.807,3.358,2.058,8.949,8.633,12.488c6.575,3.539,13.371,3.687,15.178,0.329       c1.808-3.357-2.057-8.949-8.633-12.488C364.007,212.358,357.211,212.21,355.404,215.568z"/>
					<path style="fill:#FFFFFF;" d="M371.305,240.417c-1.807,3.358,2.057,8.949,8.633,12.488c6.575,3.54,13.371,3.687,15.178,0.329       c1.807-3.358-2.058-8.949-8.633-12.488C379.908,237.207,373.112,237.06,371.305,240.417z"/>
					<path style="fill:#FFFFFF;" d="M328.957,222.699c-1.807,3.358,2.058,8.949,8.633,12.488c6.575,3.539,13.371,3.687,15.178,0.329       c1.807-3.358-2.057-8.949-8.633-12.488C337.56,219.489,330.764,219.341,328.957,222.699z"/>
					<path style="fill:#FFFFFF;" d="M362.419,197.443c-1.807,3.358,2.057,8.949,8.633,12.488c6.575,3.54,13.371,3.687,15.178,0.329       c1.807-3.358-2.058-8.949-8.633-12.488C371.022,194.233,364.227,194.086,362.419,197.443z"/>
					<path style="fill:#FFFFFF;" d="M332.074,183.006c-1.807,3.358,2.058,8.949,8.633,12.488c6.576,3.54,13.371,3.687,15.178,0.329       c1.807-3.358-2.057-8.949-8.633-12.488C340.677,179.796,333.881,179.648,332.074,183.006z"/>
					<path style="fill:#FFFFFF;" d="M369.161,177.384c-1.807,3.358,2.058,8.949,8.633,12.488c6.575,3.54,13.371,3.687,15.178,0.329       c1.807-3.357-2.057-8.949-8.633-12.488C377.764,174.174,370.968,174.026,369.161,177.384z"/>
					<path style="fill:#FFFFFF;" d="M416.856,198.844c-1.807,3.358,2.058,8.949,8.633,12.488c6.575,3.54,13.371,3.687,15.178,0.33       c1.807-3.358-2.058-8.949-8.633-12.488C425.459,195.634,418.664,195.486,416.856,198.844z"/>
					<path style="fill:#FFFFFF;" d="M432.413,242.846c-1.807,3.358,2.058,8.949,8.633,12.488c6.575,3.54,13.371,3.687,15.178,0.329       c1.807-3.358-2.058-8.949-8.633-12.488C441.016,239.636,434.221,239.489,432.413,242.846z"/>
				</g>
			</g>
			<g>
				<g>
					<path style="fill:#4F1F37;" d="M312.316,479.676l-0.463-0.652c54.741-38.905,98.415-100.676,129.806-183.598l0.748,0.283       C410.959,378.782,367.19,440.677,312.316,479.676z"/>
				</g>
				<path style="fill:#4F1F37;" d="M437.397,282.25c0.829-2.658,1.738-5.431,3.738-7.369c2-1.938,5.451-2.681,7.556-0.857      c1.77,1.533,1.963,4.183,1.828,6.521c-0.611,10.526-5.156,20.385-9.923,29.79c-5.717,11.277-11.46,23.282-18.826,33.575      c2.684-9.671,5.984-25.19,7.424-30.288C432.276,302.705,434.02,293.079,437.397,282.25z"/>
				<path style="fill:#4F1F37;" d="M442.599,353.717c2.279-1.6,4.69-3.243,7.457-3.558c2.767-0.315,5.955,1.201,6.51,3.93      c0.466,2.295-0.997,4.512-2.53,6.281c-6.906,7.968-16.522,13.006-26.037,17.549c-11.409,5.447-23.284,11.456-35.4,15.117      c8.027-6.025,20.11-16.308,24.36-19.469C426.061,366.799,433.316,360.236,442.599,353.717z"/>
				<path style="fill:#4F1F37;" d="M405.914,401.271c2.279-1.6,4.69-3.243,7.457-3.558c2.767-0.315,5.955,1.202,6.51,3.93      c0.467,2.294-0.997,4.512-2.53,6.281c-6.906,7.968-16.522,13.006-26.037,17.549c-11.409,5.447-23.284,11.456-35.4,15.117      c8.027-6.026,20.11-16.308,24.36-19.469C389.376,414.353,396.631,407.79,405.914,401.271z"/>
				<path style="fill:#4F1F37;" d="M403.466,311.199c0.129-1.611,0.321-3.283,1.184-4.65c0.862-1.366,2.593-2.32,4.117-1.784      c0.79,0.278,1.41,0.904,1.905,1.579c2.108,2.874,2.341,6.671,2.441,10.234c0.29,10.299,0.091,20.651-1.321,30.87      c-0.699,5.06-1.695,10.083-3.091,14.998c-1.21,4.258-2.844,9.855-5.487,13.983c0.276-2.78,0.889-11.806,1.058-14.794      c0.312-5.507,0.173-11.029-0.084-16.535C403.662,333.813,402.56,322.496,403.466,311.199z"/>
				<path style="fill:#4F1F37;" d="M371.697,358.259c0.129-1.611,0.321-3.283,1.184-4.649s2.593-2.32,4.117-1.784      c0.79,0.278,1.41,0.904,1.905,1.579c2.108,2.874,2.341,6.671,2.441,10.234c0.29,10.299,0.091,20.651-1.321,30.87      c-0.699,5.06-1.694,10.083-3.091,14.998c-1.21,4.258-2.844,9.855-5.487,13.983c0.275-2.78,0.889-11.806,1.058-14.794      c0.312-5.507,0.173-11.029-0.084-16.535C371.892,380.874,370.79,369.557,371.697,358.259z"/>
			</g>
		</g>
		<g>
			<path style="fill:#FFFFFF;" d="M444.035,157.807l0.49,0.268l-0.49,0.268c-11.031,1.572-16.55,8.736-18.992,18.993l-0.268,0.49     l-0.268-0.49c-2.636-10.547-8.639-16.743-18.992-18.993l-0.49-0.268l0.49-0.268c9.579-2.83,16.55-9.026,18.992-18.993l0.268-0.49     l0.268,0.49C427.389,147.716,432.036,155.945,444.035,157.807z"/>
			<path style="fill:#FFFFFF;" d="M143.693,111.737l0.49,0.268l-0.49,0.268c-11.031,1.572-16.55,8.736-18.993,18.993l-0.268,0.49     l-0.268-0.49c-2.636-10.547-8.639-16.743-18.993-18.993l-0.49-0.268l0.49-0.268c9.579-2.83,16.549-9.026,18.993-18.992     l0.268-0.49l0.268,0.49C127.046,101.645,131.694,109.875,143.693,111.737z"/>
			<path style="fill:#FFFFFF;" d="M216.002,238.958l0.368,0.202l-0.368,0.202c-8.299,1.182-12.451,6.572-14.289,14.288l-0.201,0.369     l-0.202-0.369c-1.984-7.935-6.5-12.596-14.289-14.288l-0.368-0.202l0.368-0.202c7.207-2.129,12.451-6.791,14.289-14.289     l0.202-0.368l0.201,0.368C203.478,231.366,206.974,237.557,216.002,238.958z"/>
		</g>
	</g>
</g>















</svg>
