<?xml version="1.0" encoding="UTF-8"?>
<!-- Generator: Adobe Illustrator 25.2.1, SVG Export Plug-In . SVG Version: 6.00 Build 0)  -->
<svg xmlns="http://www.w3.org/2000/svg" xmlns:xlink="http://www.w3.org/1999/xlink" version="1.1" id="Capa_1" x="0px" y="0px" viewBox="0 0 512 512" style="enable-background:new 0 0 512 512;" xml:space="preserve" width="512" height="512">
<g>
	<path style="fill:#FFFFFF;" d="M261.243,506.757c-1.027,0-2.075-0.005-3.107-0.049c-0.906-0.005-1.795-0.023-2.689-0.044   c0,0-1.788-0.028-1.935-0.033c-25.137-0.775-49.791-5.247-73.282-13.291c-2.285-0.754-4.893-1.692-8.048-2.904   c-1.232-0.462-2.556-0.966-3.882-1.52c-13.209-5.247-26.157-11.757-38.489-19.355c-1.417-0.875-2.815-1.743-4.19-2.633   c-1.223-0.784-2.505-1.629-3.76-2.474c-19.493-13.088-36.969-28.725-51.947-46.478c-0.878-0.992-1.709-2.003-2.512-3.016   c-0.472-0.56-0.941-1.13-1.403-1.704c-0.495-0.523-0.955-1.088-1.373-1.69c-0.943-1.172-1.874-2.353-2.782-3.536   c-1.611-1.375-2.92-3.104-3.802-5.088c-3.448-4.741-6.783-9.717-9.937-14.827c-0.119-0.175-0.236-0.353-0.35-0.532   c-1.277-2.045-2.532-4.143-3.732-6.214c-0.065-0.112-0.399-0.712-0.399-0.712c-0.236-0.422-0.474-0.852-0.705-1.298   C21.701,341.968,10.488,299.318,10.488,256c0-19.745,2.313-39.378,6.881-58.483c-4.699-5.84-6.968-13.088-6.639-20.062   c-6.263-6.099-10.268-14.607-10.693-23.652c-0.469-9.967,3.483-19.848,10.452-27.037c0.406-4.001,1.639-8.013,3.658-11.657   c3.193-5.761,8.417-10.527,14.71-13.429c4.468-2.056,9.491-3.144,14.53-3.144c1.361,0,2.715,0.077,4.057,0.229   c1.027-1.445,2.187-2.824,3.468-4.113c5.462-5.485,13.053-8.629,20.835-8.629c1.062,0,2.133,0.061,3.182,0.177   c0.539,0.061,1.076,0.135,1.615,0.226c24.479-26.621,54.683-47.877,87.901-61.784c0.226-0.096,0.453-0.182,0.681-0.266   c21.591-9.017,44.359-14.908,67.691-17.516c1.34-0.187,2.605-0.306,3.929-0.418c0.042-0.002,0.082-0.007,0.124-0.009   c7.777-0.789,15.975-1.19,24.371-1.19c2.397,0,5.198,0.016,8.058,0.124c0.075,0,0.149,0,0.226,0c0.439,0,0.876,0.019,1.307,0.058   c27.48,1.027,54.342,6.512,79.93,16.323c9.484-1.984,18.4-2.988,26.563-2.988l0.56,0.002c0.712-0.016,1.417-0.026,2.115-0.026   c11.792,0,21.612,2.348,29.203,6.982c0.682,0.343,1.356,0.696,2.001,1.076c1.655,0.976,3.079,2.227,4.227,3.683   c1.692,1.615,3.182,3.354,4.444,5.191c4.136,6.008,7.939,15.877,5.224,30.529c35.562,30.671,61.56,70.227,75.537,115.024   c2.152,3.672,3.352,7.871,3.452,12.082C509.339,213.695,512,234.775,512,256c0,47.676-13.468,94.091-38.946,134.225   c-0.161,0.254-0.331,0.504-0.509,0.749c-4.689,7.362-9.712,14.395-14.941,20.919l-0.353,0.453   c-0.738,0.941-1.494,1.902-2.269,2.832c-3.893,4.757-8.186,9.591-12.726,14.323c-3.891,8.48-11.055,15.226-19.806,18.55   c-9.22,7.752-19.031,14.853-29.226,21.162l-0.404,0.252c-1.564,0.98-3.118,1.949-4.734,2.855c-0.156,0.089-0.315,0.172-0.474,0.254   c-11.288,6.634-23.223,12.411-35.489,17.173c-1.368,0.549-2.897,1.144-4.449,1.69c-0.091,0.033-0.182,0.063-0.273,0.093   c-3.627,1.333-7.161,2.537-10.789,3.672c-4.93,1.559-9.969,2.969-14.934,4.174l-1.38,0.332c-0.525,0.135-1.064,0.254-1.599,0.371   c-3.581,0.845-7.259,1.629-10.81,2.304l-1.26,0.226c-3.289,0.605-6.372,1.116-9.393,1.55c-0.252,0.047-0.537,0.096-0.822,0.135   c-0.145,0.021-1.361,0.168-1.361,0.168c-1.795,0.245-3.751,0.493-5.714,0.71c-1.86,0.212-3.763,0.399-5.672,0.569l-0.448,0.044   c-4.419,0.385-8.865,0.654-13.209,0.798l-4.061,0.117C264.405,506.755,262.795,506.757,261.243,506.757z"/>
	<g>
		<path style="fill:#6C92E5;" d="M496.439,256c0,46.585-13.481,89.944-36.714,126.538l-0.048,0.024    c-4.47,7.075-9.274,13.863-14.485,20.365c-0.789,1.004-1.602,2.056-2.438,3.059c-4.422,5.402-9.083,10.565-13.959,15.536    c-4.709,4.804-9.609,9.417-14.724,13.792c-9.274,7.984-19.146,15.226-29.615,21.703c-1.53,0.956-3.036,1.912-4.613,2.797h-0.048    c-10.852,6.43-22.205,11.951-34.084,16.564c-1.315,0.526-2.653,1.052-4.016,1.53h-0.024c-3.49,1.291-6.979,2.486-10.565,3.609    c-4.613,1.458-9.298,2.773-14.031,3.92c-0.502,0.12-241.817-81.961-241.865-82.032c-0.024,0-0.024,0,0-0.048    c-1.793-2.199-5.378-6.908-5.45-7.027c-3.896-5.235-7.553-10.66-10.971-16.229c0-0.048-0.048-0.072-0.096-0.12    c-1.195-1.912-2.366-3.872-3.49-5.808c-0.287-0.526-0.597-1.052-0.885-1.625C34.746,338.151,23.608,298.378,23.608,256    c0-98.214,59.923-182.444,145.157-218.13c0,0,0,0,0.048,0c20.269-8.533,41.924-14.27,64.583-16.78    c1.147-0.167,2.223-0.263,3.346-0.359h0.048c7.649-0.788,15.393-1.147,23.233-1.147c2.773,0,5.522,0.024,8.246,0.143    c0,0,0.048-0.048,0.048,0c28.682,0.98,56.098,7.099,81.291,17.449c0.072,0,0.143,0.024,0.215,0.072h0.024    c20.986,8.604,40.442,20.173,57.867,34.156C461.805,114.715,496.439,181.33,496.439,256z"/>
		<g>
			<g>
				<path style="fill:#4F1F37;" d="M183.977,318.633c-0.081,0-0.161-0.032-0.222-0.096c-37.948-40.559-66.571-90.079-82.774-143.207      c-0.049-0.16,0.042-0.329,0.202-0.378c0.159-0.052,0.329,0.041,0.378,0.201c16.176,53.04,44.751,102.479,82.638,142.97      c0.114,0.122,0.107,0.314-0.015,0.429C184.125,318.606,184.051,318.633,183.977,318.633z"/>
			</g>
			<g>
				<path style="fill:#4F1F37;" d="M100.561,191.84c-0.133,1.735-0.082,3.587,0.848,5.058c0.297,0.469,0.708,0.904,1.244,1.045      c0.78,0.204,1.606-0.292,2.042-0.97c0.436-0.677,0.57-1.5,0.693-2.296c0.214-1.378,0.428-2.756,0.642-4.135      c2.161,0.81,4.488,1.174,6.793,1.065c1.173-0.056,2.503-0.337,3.086-1.356c0.43-0.75,0.309-1.727-0.131-2.472      c-0.44-0.745-1.152-1.29-1.899-1.726c-2.382-1.392-7.754-3.023-10.468-1.819C100.823,185.383,100.749,189.386,100.561,191.84z"/>
				<g>
					<path style="fill:#FF9280;" d="M101.58,187.228c-16.54,9.623-36.451,13.316-55.343,10.265       c-6.571-1.061-13.339-3.099-17.963-7.887c-4.623-4.789-6.246-12.976-2.047-18.141c-7.477-2.642-12.713-10.417-13.086-18.338       c-0.373-7.921,4.059-15.792,10.838-19.908c-1.142-3.545-0.31-7.906,1.495-11.164c1.805-3.258,4.785-5.792,8.167-7.35       c6.829-3.146,15.373-2.166,21.313,2.444c-0.518-4.449,1.75-9.21,4.909-12.385c3.159-3.175,7.802-4.809,12.253-4.313       c4.26,0.475,8.113,2.752,11.503,5.376c0.389-3.406,4.123-6.713,7.181-8.261c3.058-1.548,6.892-1.45,9.867,0.253       c3.115,1.783,5.073,5.009,6.898,8.099c0.596,1.009,1.191,2.018,1.787,3.026c7.808-1.484,16.753,0.799,22.656,6.121       c5.903,5.322,9.126,13.479,8.456,21.398c-0.462,5.455-2.639,10.621-5.213,15.452       C127.567,166.333,115.701,179.011,101.58,187.228z"/>
					<g>
						<g>
							<path style="fill:#4F1F37;" d="M106.069,185.517c-0.035,0-0.069-0.012-0.098-0.036c-1.32-1.122-2.632-2.224-3.94-3.323         c-1.011-0.85-2.02-1.698-3.028-2.551c-0.12-0.095-0.245-0.2-0.369-0.306c-0.121-0.103-0.241-0.206-0.363-0.302         c-0.319-0.264-0.631-0.529-0.941-0.793c-0.482-0.411-0.981-0.836-1.482-1.232c-5.754-4.8-10.765-8.493-16.526-10.92         c-1.99-0.835-4.042-1.456-6.098-1.846c-4.191-0.841-10.369-1.172-16.013,2.037c-1.136,0.639-2.233,1.413-3.293,2.162         c-1.974,1.394-4.016,2.835-6.374,3.448c-3.149,0.812-6.399,0.067-9.541-0.651c-0.509-0.117-1.016-0.232-1.521-0.342         c-3.048-0.685-7.472-1.335-10.677,0.887c-0.068,0.046-0.162,0.031-0.21-0.038c-0.048-0.069-0.031-0.163,0.038-0.211         c3.301-2.289,7.809-1.63,10.914-0.934c0.505,0.109,1.013,0.226,1.522,0.342c3.104,0.71,6.316,1.446,9.397,0.654         c2.306-0.6,4.324-2.024,6.275-3.402c1.067-0.753,2.17-1.532,3.318-2.178c5.725-3.254,11.981-2.921,16.221-2.071         c2.074,0.394,4.146,1.021,6.156,1.864c5.797,2.441,10.828,6.149,16.6,10.964c0.502,0.396,1.004,0.823,1.488,1.235         c0.31,0.264,0.62,0.528,0.936,0.789c0.121,0.096,0.245,0.201,0.369,0.307c0.122,0.103,0.242,0.206,0.364,0.302         c1.013,0.857,2.021,1.705,3.032,2.554c1.309,1.1,2.621,2.203,3.94,3.325c0.064,0.054,0.072,0.149,0.018,0.213         C106.155,185.498,106.112,185.517,106.069,185.517z"/>
						</g>
						<g>
							<path style="fill:#4F1F37;" d="M95.984,177.185c-0.06,0-0.116-0.036-0.141-0.095c-0.019-0.046-0.025-0.088-0.031-0.122         c-0.004-0.024-0.007-0.042-0.014-0.058c-1.368-6.374,0.521-12.611,2.347-16.725c1.165-2.623,2.718-5.378,4.887-8.669         c1.036-1.598,2.142-3.2,3.21-4.748l0.908-1.318c2.456-3.618,4.677-7.201,4.858-11.241c0.146-2.809-0.753-5.56-1.621-8.221         c-0.403-1.233-0.82-2.509-1.132-3.783c-1.109-4.382-1.062-9.017,0.136-13.403c0.022-0.08,0.102-0.129,0.187-0.106         c0.081,0.022,0.128,0.105,0.106,0.186c-1.186,4.335-1.233,8.917-0.135,13.249c0.31,1.264,0.725,2.534,1.126,3.762         c0.877,2.687,1.784,5.465,1.636,8.329c-0.186,4.118-2.429,7.741-4.911,11.397l-0.909,1.32         c-1.067,1.546-2.171,3.146-3.205,4.742c-2.16,3.278-3.705,6.019-4.863,8.626c-1.808,4.072-3.68,10.243-2.334,16.515         c0.01,0.02,0.017,0.061,0.022,0.094c0.004,0.024,0.007,0.044,0.014,0.06c0.031,0.078-0.007,0.166-0.084,0.197         C96.022,177.182,96.003,177.185,95.984,177.185z"/>
						</g>
						<path style="fill:#4F1F37;" d="M90.164,146.581c-0.86-2.335,1.073-5.058,3.495-5.561c2.452-0.502,4.989,0.834,6.521,2.758        c1.558,1.955,2.291,4.425,2.795,6.849c0.061,0.324,0.123,0.649,0.184,0.973c-1.819,2.76-3.529,5.617-4.875,8.648        c-2.303,5.192-3.529,11.079-2.344,16.608c-5.122-4.274-10.432-8.359-16.561-10.941c-1.968-0.826-4.01-1.453-6.128-1.855        c-2.067-2.867-3.79-6.027-4.421-9.042c-0.195-0.829-0.297-1.738-0.086-2.564c0.542-2.049,2.922-3.108,4.998-2.913        c2.103,0.226,3.957,1.391,5.726,2.521c-1.786-2.38-2.832-5.282-2.975-8.228c-0.147-2.889,1.39-6.485,4.257-6.372        c1.217,0.039,2.264,0.762,3.192,1.504C86.508,141.058,88.653,143.671,90.164,146.581z"/>
					</g>
				</g>
			</g>
		</g>
		<g>
			<g>
				<path style="fill:#4F1F37;" d="M375.197,372.678c-0.093-0.027-0.185-0.066-0.273-0.117c-0.6-0.344-0.808-1.11-0.464-1.711      c22.006-38.378,55.838-70.562,95.265-90.626c0.616-0.312,1.374-0.068,1.686,0.549c0.314,0.618,0.069,1.372-0.549,1.687      c-38.998,19.844-72.461,51.678-94.227,89.636C376.342,372.609,375.74,372.836,375.197,372.678z"/>
				<path style="fill:#4F1F37;" d="M409.931,326.898c-0.096-0.028-0.19-0.069-0.28-0.122c-0.598-0.349-0.801-1.114-0.453-1.715      c1.107-1.902,3.827-4.2,5.94-5.019c18.428-7.153,37.796-10.983,57.564-11.385c0.699-0.015,1.265,0.538,1.279,1.229      c0.014,0.692-0.536,1.264-1.228,1.279c-19.474,0.395-38.553,4.17-56.709,11.216c-1.583,0.613-3.856,2.528-4.678,3.942      C411.07,326.833,410.471,327.057,409.931,326.898z"/>
				<path style="fill:#4F1F37;" d="M424.093,313.008c-0.612-0.179-0.999-0.797-0.88-1.436c2.601-13.8,7.258-27.085,13.843-39.486      c0.324-0.612,1.083-0.843,1.695-0.52c0.612,0.324,0.845,1.084,0.52,1.695c-6.466,12.177-11.04,25.224-13.593,38.775      c-0.129,0.681-0.784,1.127-1.465,0.999C424.172,313.03,424.132,313.02,424.093,313.008z"/>
			</g>
			<path style="fill:#FFFFFF;" d="M423.671,267.719c-0.284,6.392,4.667,11.804,11.058,12.088     c6.392,0.284,11.804-4.667,12.088-11.058c0.284-6.392-4.667-11.804-11.058-12.088     C429.368,256.377,423.956,261.327,423.671,267.719z"/>
			<path style="fill:#FFFFFF;" d="M455.334,280.528c-0.284,6.392,4.667,11.804,11.058,12.088     c6.392,0.284,11.804-4.666,12.088-11.058c0.284-6.392-4.666-11.804-11.058-12.088     C461.031,269.185,455.619,274.136,455.334,280.528z"/>
			<path style="fill:#FFFFFF;" d="M453.973,311.128c-0.285,6.392,4.666,11.804,11.058,12.088     c6.392,0.284,11.804-4.666,12.088-11.058c0.284-6.392-4.667-11.804-11.058-12.088     C459.669,299.786,454.257,304.737,453.973,311.128z"/>
		</g>
		<g>
			<g>
				<path style="fill:#4F1F37;" d="M321.081,361.073c-0.039,0-0.079-0.008-0.117-0.023c-0.154-0.065-0.227-0.243-0.162-0.396      c21.568-51.185,55.122-97.507,97.032-133.958c0.127-0.11,0.318-0.096,0.428,0.03c0.11,0.126,0.097,0.317-0.029,0.427      c-41.842,36.391-75.34,82.635-96.872,133.735C321.311,361.004,321.199,361.073,321.081,361.073z"/>
			</g>
			<g>
				<path style="fill:#4F1F37;" d="M402.587,233.041c-1.639,0.586-3.31,1.387-4.273,2.837c-0.307,0.462-0.538,1.015-0.447,1.562      c0.132,0.795,0.921,1.348,1.718,1.47c0.796,0.122,1.602-0.091,2.379-0.303c1.346-0.366,2.692-0.733,4.037-1.099      c0.141,2.304,0.757,4.577,1.796,6.638c0.529,1.048,1.328,2.148,2.496,2.266c0.861,0.087,1.703-0.422,2.204-1.127      c0.501-0.705,0.708-1.578,0.802-2.438c0.3-2.742-0.4-8.313-2.606-10.301C408.59,230.649,404.905,232.213,402.587,233.041z"/>
				<g>
					<path style="fill:#FF9280;" d="M407.215,232.092c-15.53-11.182-27.018-27.858-31.931-46.353       c-1.709-6.433-2.607-13.444-0.119-19.617c2.488-6.174,9.303-10.993,15.731-9.263c-0.635-7.905,4.33-15.855,11.412-19.424       c7.081-3.569,16.075-2.73,22.596,1.783c2.771-2.488,7.094-3.505,10.804-3.185c3.711,0.321,7.239,2.008,10.041,4.462       c5.656,4.953,8.244,13.155,6.456,20.458c3.852-2.287,9.123-2.156,13.311-0.565c4.187,1.591,7.571,5.164,8.932,9.432       c1.303,4.084,0.793,8.53-0.221,12.696c3.268-1.033,7.81,1.029,10.47,3.191c2.66,2.162,4.133,5.702,3.79,9.113       c-0.359,3.571-2.506,6.675-4.584,9.6c-0.678,0.955-1.357,1.91-2.035,2.865c4.537,6.525,6.099,15.624,3.645,23.183       c-2.454,7.559-8.589,13.827-16.094,16.443c-5.169,1.802-10.774,1.92-16.234,1.537       C436.886,247.306,420.473,241.638,407.215,232.092z"/>
					<g>
						<g>
							<path style="fill:#4F1F37;" d="M410.745,235.584c-0.014,0-0.028-0.002-0.043-0.006c-0.08-0.023-0.126-0.108-0.103-0.188         c0.483-1.653,0.953-3.291,1.421-4.925c0.366-1.279,0.732-2.555,1.103-3.833c0.037-0.146,0.082-0.299,0.127-0.452         c0.046-0.155,0.091-0.31,0.13-0.463c0.109-0.396,0.224-0.786,0.338-1.174c0.18-0.611,0.365-1.244,0.522-1.865         c2.038-7.209,3.368-13.289,3.236-19.542c-0.049-2.159-0.317-4.286-0.8-6.321c-0.939-4.17-3.155-9.946-8.387-13.793         c-1.046-0.776-2.199-1.461-3.314-2.124c-2.078-1.235-4.226-2.512-5.747-4.416c-2.025-2.547-2.67-5.816-3.294-8.977         c-0.102-0.513-0.202-1.023-0.309-1.529c-0.618-3.062-1.826-7.367-5.161-9.389c-0.072-0.044-0.095-0.136-0.052-0.208         c0.045-0.073,0.138-0.094,0.208-0.051c3.439,2.083,4.673,6.469,5.302,9.586c0.106,0.505,0.207,1.018,0.309,1.531         c0.617,3.126,1.255,6.357,3.233,8.847c1.487,1.86,3.611,3.123,5.665,4.344c1.122,0.667,2.282,1.357,3.34,2.142         c5.307,3.902,7.553,9.75,8.502,13.968c0.487,2.054,0.759,4.202,0.808,6.382c0.133,6.29-1.202,12.396-3.247,19.627         c-0.157,0.623-0.344,1.258-0.523,1.872c-0.114,0.387-0.228,0.775-0.337,1.166c-0.038,0.153-0.085,0.312-0.132,0.471         c-0.043,0.15-0.087,0.299-0.125,0.446c-0.372,1.283-0.737,2.559-1.103,3.837c-0.468,1.634-0.938,3.273-1.421,4.927         C410.871,235.541,410.81,235.584,410.745,235.584z"/>
						</g>
						<g>
							<path style="fill:#4F1F37;" d="M414.242,222.978c-0.038,0-0.075-0.014-0.104-0.042c-0.061-0.058-0.062-0.154-0.005-0.214         c0.034-0.036,0.07-0.059,0.099-0.078c0.021-0.013,0.036-0.023,0.047-0.035c5.264-3.849,11.729-4.666,16.23-4.675         c0.023,0,0.048,0,0.072,0c2.849,0,5.977,0.295,9.835,0.929c1.881,0.295,3.792,0.651,5.641,0.995l1.578,0.293         c4.306,0.768,8.485,1.335,12.245-0.145c2.624-1.012,4.768-2.953,6.844-4.83c0.963-0.872,1.959-1.773,2.996-2.577         c3.55-2.801,7.801-4.647,12.294-5.339c0.08-0.013,0.161,0.044,0.173,0.127c0.013,0.083-0.044,0.16-0.126,0.173         c-4.442,0.684-8.645,2.509-12.154,5.278c-1.029,0.798-2.021,1.695-2.979,2.562c-2.095,1.896-4.262,3.855-6.937,4.887         c-3.834,1.509-8.058,0.938-12.409,0.161l-1.58-0.293c-1.847-0.344-3.755-0.7-5.633-0.994         c-3.843-0.631-6.955-0.925-9.787-0.925c-0.025,0-0.048,0-0.072,0c-4.455,0.01-10.853,0.816-16.032,4.6         c-0.015,0.018-0.05,0.042-0.078,0.06c-0.02,0.013-0.036,0.023-0.047,0.035C414.322,222.962,414.282,222.978,414.242,222.978z         "/>
						</g>
						<path style="fill:#4F1F37;" d="M439.679,205.1c1.782-1.736,5.056-1.082,6.503,0.925c1.457,2.035,1.272,4.896,0.139,7.079        c-1.15,2.22-3.108,3.896-5.115,5.343c-0.271,0.188-0.543,0.376-0.814,0.565c-3.262-0.536-6.567-0.933-9.883-0.927        c-5.68,0.012-11.556,1.293-16.121,4.629c1.815-6.419,3.381-12.934,3.241-19.582c-0.049-2.134-0.307-4.254-0.804-6.352        c1.776-3.056,3.959-5.917,6.454-7.722c0.678-0.516,1.466-0.98,2.307-1.123c2.092-0.341,4.029,1.401,4.697,3.377        c0.651,2.013,0.342,4.181,0.032,6.257c1.446-2.601,3.669-4.74,6.302-6.07c2.578-1.311,6.488-1.374,7.554,1.29        c0.461,1.127,0.227,2.378-0.073,3.528C443.231,199.511,441.72,202.534,439.679,205.1z"/>
					</g>
				</g>
			</g>
		</g>
		<g>
			<path style="fill:#FFCC7A;" d="M406.839,43.791c20.878,20.73-33.355,93.561-115.175,149.847     c-81.82,56.286-163.009,80.521-181.122,53.982c-18.679-27.368,31.07-87.275,115.97-148.502     C309.363,39.367,383.66,20.776,406.839,43.791z"/>
			<g>
				<path style="fill:#4F1F37;" d="M294.596,87.413c-30.837,7.411-54.073,33.236-69.354,61.028      c-20.528,37.334-30.211,80.117-30.983,122.715c-0.441,24.321,2.001,48.922,9.933,71.918      c7.932,22.996,21.62,44.376,40.961,59.127c19.558,14.916,43.958,22.427,68.396,25.218c12.38,1.414,25.13,1.658,37.081-1.871      c25.797-7.617,43.734-31.681,52.927-56.959c18.331-50.404,7.085-110.392-28.258-150.734      c-4.917-5.613-10.341-10.992-13.482-17.76c-7.912-17.051,0.704-36.722,2.378-55.445c2.21-24.719-9.016-50.231-28.734-65.302      C323.489,79.457,306.237,84.616,294.596,87.413z"/>
				<g>
					<path style="fill:#FF794F;" d="M317.078,485.436c-15.704,3.92-32.005,6.238-48.76,6.812c-1.362,0.048-2.749,0.072-4.087,0.12       c-1.386,0.048-2.821,0.048-4.207,0.048c-0.908,0-1.84,0-2.749-0.048c-1.386,0-2.725-0.048-4.111-0.071h-0.43       c-24.093-0.741-47.302-5.067-69.077-12.525L70.001,396.64c0,0,1.195-8.628,1.984-12.764c0.191-0.932,0.382-1.864,0.598-2.796       c0.143-0.717,0.287-1.434,0.454-2.151c1.673-7.338,3.824-14.126,6.573-20.03c2.342-5.02,4.876-9.728,7.649-14.15       c0.406-0.693,0.861-1.386,1.315-2.056c1.267-1.984,2.605-3.896,3.991-5.76c0.765-1.076,1.554-2.103,2.39-3.131       c1.984-2.51,4.064-4.9,6.239-7.171c18.476-19.504,42.833-30.38,72.089-33.917h0.024c1.721-0.215,3.442-0.383,5.187-0.55       l15.799-8.939l7.721-4.35l13.911-7.864l8.772,9.513l49.382,53.517c0,0,19.696,21.871,32.364,48.521       c4.207,8.892,7.649,18.285,9.346,27.583c0.86,4.804,1.434,10.851,1.793,17.687C318.44,444.779,317.938,466.458,317.078,485.436       z"/>
					<g>
						<path style="fill:#4F1F37;" d="M308.472,385.504c-0.114,0-0.228-0.052-0.301-0.151c-21.061-28.28-94.932-64.215-95.675-64.574        c-0.098-0.048-0.17-0.135-0.198-0.239c-0.029-0.105-0.011-0.217,0.049-0.307l11.891-17.833l-69.62-12.713        c-0.204-0.037-0.339-0.232-0.302-0.437c0.037-0.202,0.229-0.338,0.437-0.302l70.181,12.815        c0.124,0.022,0.229,0.106,0.278,0.223c0.049,0.116,0.036,0.249-0.034,0.355l-11.968,17.951        c5.842,2.864,75.189,37.253,95.564,64.613c0.124,0.166,0.089,0.4-0.077,0.524C308.628,385.479,308.55,385.504,308.472,385.504        z"/>
					</g>
				</g>
				<g>
					<path style="fill:#FF9280;" d="M257.418,284.85c-0.406,8.796,16.158,47.971,16.659,49.191l-90.302-69.125l40.466-100.963       l0.095-0.263l1.339-3.346l8.94,11.664l27.612,51.346l5.66,26.049C262.963,263.625,257.633,280.045,257.418,284.85z"/>
					<path style="fill:#4F1F37;" d="M276.133,226.266c0,0-3.968,10.732-8.246,23.137c-12.31-8.557-21.846-20.628-28.491-33.702       c-8.199-16.205-12.286-33.988-15.154-51.748c-0.024-0.143-0.048-0.263-0.072-0.406c0.048,0.048,0.12,0.096,0.167,0.143       c3.466,2.773,6.908,5.545,10.278,8.318L276.133,226.266z"/>
					<g>
						<path style="fill:#FF9280;" d="M351.8,129.427c0-38.086-30.875-68.96-68.96-68.96s-68.96,30.874-68.96,68.96        c0,18.925,7.628,36.064,19.972,48.525c7.117,50.438,48.692,71.23,81.332,59.289c27.602-10.098,34.595-77.288,36.187-100.185        C351.647,134.549,351.8,132.007,351.8,129.427z"/>
						<g>
							<circle style="fill:#FF794F;" cx="273.686" cy="177.983" r="16.21"/>
							<g>
								<g>
									<path style="fill:#4F1F37;" d="M322.63,191.669c-0.982,0.001-2.015-0.299-2.757-0.575l-4.357-1.618           c-0.196-0.073-0.297-0.291-0.224-0.488c0.073-0.196,0.295-0.296,0.487-0.223l4.357,1.618c1.016,0.377,3.47,1.102,4.3-0.33           c0.28-0.484,0.284-1.085,0.261-1.82c-0.436-13.568-0.924-27.378-1.449-41.043c-0.008-0.21,0.155-0.386,0.364-0.394           c0.201-0.028,0.385,0.155,0.394,0.364c0.526,13.668,1.014,27.479,1.449,41.048c0.022,0.674,0.05,1.514-0.362,2.224           C324.554,191.367,323.617,191.669,322.63,191.669z"/>
								</g>
								<path style="fill:#4F1F37;" d="M301.04,157.34c-0.132,3.477-2.667,6.203-5.662,6.09c-2.995-0.113-5.316-3.024-5.185-6.5          c0.132-3.477,2.667-6.203,5.662-6.089C298.85,150.953,301.171,153.864,301.04,157.34z"/>
								<path style="fill:#4F1F37;" d="M342.473,157.551c-0.122,3.228-2.476,5.76-5.257,5.655c-2.781-0.105-4.937-2.808-4.815-6.036          c0.122-3.228,2.476-5.76,5.257-5.655C340.439,151.621,342.595,154.323,342.473,157.551z"/>
								<g>
									<path style="fill:#4F1F37;" d="M285.283,141.205c-0.072,0-0.146-0.018-0.213-0.056c-0.208-0.118-0.281-0.381-0.163-0.589           c1.351-2.382,3.76-4.128,6.443-4.669c2.685-0.541,5.581,0.133,7.75,1.807c0.189,0.146,0.225,0.417,0.079,0.606           c-0.147,0.19-0.42,0.223-0.607,0.078c-1.975-1.522-4.611-2.135-7.052-1.643c-2.441,0.493-4.634,2.081-5.862,4.248           C285.58,141.126,285.434,141.205,285.283,141.205z"/>
								</g>
								<g>
									<path style="fill:#4F1F37;" d="M345.83,141.521c-0.149,0-0.29-0.088-0.351-0.235c-0.802-1.943-2.425-3.273-4.342-3.558           c-1.939-0.289-4.141,0.492-5.89,2.086c-0.154,0.14-0.396,0.131-0.536-0.025c-0.142-0.155-0.13-0.395,0.024-0.536           c1.917-1.745,4.353-2.596,6.513-2.275c2.184,0.324,4.027,1.827,4.932,4.02c0.08,0.193-0.012,0.416-0.206,0.495           C345.928,141.512,345.879,141.521,345.83,141.521z"/>
								</g>
								<g>
									<path style="fill:#4F1F37;" d="M316.13,201.461c-1.336,0-2.67-0.224-3.915-0.675c-2.906-1.054-5.387-3.372-6.635-6.202           c-0.097-0.218,0.003-0.474,0.221-0.57c0.218-0.096,0.474,0.001,0.57,0.221c1.155,2.618,3.45,4.763,6.139,5.738           c2.691,0.975,5.825,0.8,8.389-0.469c0.214-0.107,0.473-0.019,0.579,0.195c0.105,0.214,0.018,0.473-0.196,0.579           C319.698,201.063,317.912,201.461,316.13,201.461z"/>
								</g>
							</g>
						</g>
					</g>
					<path style="fill:#4F1F37;" d="M342.951,95.252c-7.461-10.397-19.374-19.537-32.061-17.857       c-12.686,1.68-24.116,10.764-28.615,22.745c-4.116,10.962-2.6,23.103-1.836,34.788c0.764,11.685,0.428,24.344-6.543,33.752       c-3.666,4.947-9.051,8.544-14.967,10.203c-6.911,1.938-13.408-0.303-20.356,0.092c-2.868,0.163-6.063,1.228-7.206,3.864       c-3.4,7.835,6.367,19.941,8.479,27.245c2.191,7.581,3.031,15.468,3.884,23.288c1.51,13.833-1.533,28.574-10.448,39.257       c-11.332,13.579-29.878,18.538-47.402,20.924c-17.524,2.386-35.792,3.095-51.63,10.963       c-14.899,7.402-28.424,16.763-38.487,30.012c-11.22,14.771-17.187,32.761-22.967,50.387       c-22.117-28.054-36.276-62.508-31.577-97.922c4.699-35.414,29.864-68.827,64.461-77.729c8.245-2.122,16.794-2.876,25.04-4.994       c20.629-5.299,38.816-19.474,48.992-38.184c7.111-13.074,6.94-26.015,14.03-39.1c3.227-5.956,7.27-15.668,11.027-21.305       c12.329-18.495,30.397-33.107,51.063-41.294c15.975-6.329,33.865-8.821,50.492-4.483       C322.949,64.242,338.374,76.639,342.951,95.252z"/>
				</g>
			</g>
			<path style="fill:#FFCC7A;" d="M178.067,138.009c0,0-17.306-59.147,28.417-89.893c45.723-30.745,93.19-10.943,104.581,2.434     c0,0-25.173,9.611-66.366,36.158C210.435,108.789,179.806,136.374,178.067,138.009z"/>
			<g>
				<path style="fill:#4F1F37;" d="M113.796,209.544c-0.059,0-0.118-0.014-0.173-0.042c-0.184-0.096-0.256-0.322-0.16-0.506      c0.208-0.399,21.497-40.485,82.695-87.19c63.396-48.381,95.182-64.999,128.66-77.354c34.052-12.567,61.618-14.292,77.621-4.853      c0.179,0.105,0.238,0.335,0.133,0.513c-0.107,0.179-0.338,0.236-0.514,0.133c-15.806-9.322-43.145-7.576-76.98,4.911      c-33.412,12.33-65.143,28.922-128.465,77.247c-61.052,46.592-82.277,86.542-82.484,86.94      C114.061,209.471,113.931,209.544,113.796,209.544z"/>
			</g>
		</g>
		<g>
			<path style="fill:#4F1F37;" d="M293.152,490.097c-0.406,0.048-0.813,0.096-1.195,0.143c-3.944-39.845-4.828-80-2.629-120.012     c0.072-1.721,0.167-3.418,0.287-5.115c0.168-2.964,0.359-5.904,0.574-8.844c0.024-0.263,0.048-0.526,0.072-0.789     c0-0.215,0.024-0.406,0.048-0.621c0-0.024,0-0.024,0-0.024c0.072-1.076,0.143-2.175,0.239-3.25     c0.024-0.335,0.263-0.598,0.645-0.55c0.335,0.024,0.574,0.311,0.55,0.645c-0.12,1.41-0.215,2.844-0.311,4.255     c-0.096,1.291-0.191,2.557-0.287,3.824c-0.12,1.793-0.239,3.585-0.335,5.378c-0.215,3.49-0.406,6.979-0.573,10.445     c-0.215,4.542-0.383,9.059-0.526,13.576C288.682,422.837,289.829,456.562,293.152,490.097z"/>
			<g>
				<g>
					<path style="fill:#FFEAE8;" d="M269.81,351.55c-7.113-1.208-14.317-1.805-21.521-2.195c-14.418-0.782-29.699-0.532-42.11,6.846       c-2.943,1.749-6.002,4.844-4.922,8.092c0.675,2.031,2.772,3.229,4.811,3.881c5.042,1.612,10.498,1.016,15.737,0.258       c17.756-2.568,35.271-6.805,52.237-12.637c-1.858-1.31-3.036-2.993-4.702-4.54C269.49,351.385,269.66,351.418,269.81,351.55z"/>
					<path style="fill:#FFEAE8;" d="M288.933,350.297c-5.177-4.022-10.663-7.589-16.228-10.988       c-11.138-6.803-23.361-13.138-36.064-12.466c-3.012,0.159-6.636,1.359-7.036,4.456c-0.25,1.936,0.951,3.805,2.316,5.205       c3.377,3.465,7.938,5.315,12.388,6.942c15.084,5.515,30.621,9.572,46.341,12.103c-0.968-1.857-1.251-3.726-1.974-5.693       C288.743,350.027,288.865,350.126,288.933,350.297z"/>
					<path style="fill:#FFEAE8;" d="M272.39,354.784c-20.398,10.146-41.572,20.96-53.59,39.387       c-1.971,3.022-3.555,7.225-0.912,10.272c1.679,1.935,4.585,2.593,7.008,2.174c2.422-0.419,4.461-1.724,6.364-3.079       c8.877-6.318,16.233-14.254,23.403-22.244c7.484-8.34,14.827-16.795,22.073-25.325       C275.094,355.594,274.032,355.159,272.39,354.784z"/>
					<path style="fill:#FFEAE8;" d="M310.831,351.823c19.024-3.173,38.932-6.29,57.268-0.306c3.007,0.981,6.439,2.889,6.471,6.051       c0.02,2.009-1.487,3.788-3.296,4.66c-1.809,0.873-3.877,1.006-5.886,1.045c-9.369,0.181-18.677-1.372-27.896-3.047       c-9.623-1.749-19.22-3.635-28.798-5.615C309.543,353.603,309.982,352.83,310.831,351.823z"/>
					<path style="fill:#FFEAE8;" d="M296.813,347.107c16.131-10.898,33.062-22.064,50.856-21.972       c2.918,0.015,6.445,0.955,7.259,4.649c0.517,2.347-0.38,5-1.772,6.705c-1.392,1.706-3.198,2.643-4.975,3.446       c-8.287,3.748-16.952,5.441-25.568,6.957c-8.993,1.583-17.998,2.994-27.009,4.288       C296.109,349.679,296.308,348.608,296.813,347.107z"/>
					<path style="fill:#FFEAE8;" d="M279.219,357.196c-15.745,15.635-32.024,32.13-38.417,53.176       c-1.048,3.451-1.48,7.912,1.571,10.032c1.938,1.346,4.669,1.119,6.721,0.009s3.558-2.949,4.933-4.795       c6.411-8.613,11.099-18.316,15.608-28.017c4.707-10.125,9.262-20.318,13.714-30.555       C281.805,357.172,280.763,357.07,279.219,357.196z"/>
					<path style="fill:#FFEAE8;" d="M287.513,357.018c-12.212,19.158-24.746,39.285-25.625,61.268       c-0.144,3.605,0.64,8.026,4.436,9.29c2.411,0.803,5.218-0.119,7.067-1.719c1.849-1.6,2.922-3.765,3.854-5.903       c4.35-9.972,6.584-20.554,8.632-31.089c2.138-10.995,4.097-22.017,5.936-33.055       C290.225,356.33,289.101,356.499,287.513,357.018z"/>
					<path style="fill:#FFEAE8;" d="M292.167,356.439c-2.607,22.424-5.083,45.859,3.546,66.095c1.415,3.318,4.001,6.987,7.9,6.541       c2.477-0.283,4.566-2.291,5.517-4.511c0.951-2.22,0.974-4.625,0.884-6.947c-0.419-10.832-2.971-21.331-5.667-31.709       c-2.814-10.832-5.797-21.614-8.893-32.359C294.273,354.682,293.35,355.306,292.167,356.439z"/>
					<path style="fill:#FFEAE8;" d="M301.995,357.071c15.647,16.521,31.794,33.934,36.78,55.361c0.817,3.514,0.872,8.005-2.64,9.961       c-2.23,1.242-5.175,0.865-7.301-0.359c-2.125-1.224-3.591-3.148-4.912-5.073c-6.163-8.977-10.351-18.952-14.347-28.914       c-4.17-10.399-8.17-20.857-12.054-31.353C299.188,356.905,300.33,356.86,301.995,357.071z"/>
					<path style="fill:#FFEAE8;" d="M309.323,355.559c21.133,8.365,43.096,17.326,56.685,34.628       c2.229,2.837,4.182,6.881,1.841,10.132c-1.486,2.065-4.305,2.964-6.743,2.752c-2.438-0.212-4.577-1.338-6.586-2.523       c-9.371-5.531-17.383-12.798-25.216-20.134c-8.175-7.658-16.222-15.442-24.18-23.309       C306.719,356.593,307.73,356.071,309.323,355.559z"/>
					<path style="fill:#FFEAE8;" d="M281.123,341.096c-5.357-4.793-10.788-9.671-14.605-15.763c-1.826-2.914-3.29-6.248-3.029-9.677       c0.261-3.429,2.705-6.871,6.117-7.303c3.866-0.49,7.096,2.734,9.648,5.68c1.919,2.216,3.861,4.466,5.131,7.108       c1.031,2.147,1.586,4.486,2.133,6.804c1.863,7.891,3.725,15.781,5.588,23.672C288.646,347.689,284.785,344.758,281.123,341.096       z"/>
					<path style="fill:#FFEAE8;" d="M301.619,338.807c4.206-5.829,8.466-11.758,10.89-18.525c1.159-3.237,1.876-6.807,0.886-10.101       c-0.989-3.294-4.114-6.132-7.539-5.824c-3.881,0.349-6.346,4.19-8.207,7.614c-1.4,2.575-2.815,5.19-3.489,8.042       c-0.548,2.318-0.588,4.722-0.626,7.103c-0.13,8.107-0.259,16.213-0.389,24.32C295.682,346.858,298.826,343.168,301.619,338.807       z"/>
				</g>
				<path style="fill:#FF9280;" d="M287.1,337.783c-8.87,0.27-16.994,2.758-22.911,8.121c-1.387,1.257-2.644,2.671-3.245,4.386      c-1.463,4.18,1.986,7.525,6.376,9.672c11.076,5.417,23.854,6.109,35.199,4.273c5.255-0.85,10.497-2.299,14.03-5.502      c2.185-1.98,3.636-4.935,2.388-7.843c-3.956-9.213-16.614-12.318-26.101-12.986C290.899,337.769,288.983,337.726,287.1,337.783z      "/>
			</g>
		</g>
		<g>
			<path style="fill:#4F1F37;" d="M373.582,418.606c-1.912,1.649-3.8,3.323-5.689,5.043c0,0-0.024,0-0.048,0.024     c-0.239,0.215-0.478,0.43-0.741,0.646c-0.024,0.048-0.048,0.071-0.072,0.095c-1.243,1.147-2.51,2.295-3.729,3.466     c-18.213,17.21-34.276,36.714-47.709,57.915c-0.549,0.143-1.123,0.263-1.673,0.383c13.6-21.655,29.949-41.59,48.521-59.158     c1.195-1.124,2.414-2.247,3.633-3.37c0.335-0.311,0.669-0.621,1.004-0.908h0.024c0.191-0.191,0.382-0.382,0.574-0.55     c0.287-0.263,0.574-0.502,0.86-0.765c1.41-1.267,2.82-2.51,4.255-3.729c0.263-0.215,0.621-0.191,0.837,0.072     C373.845,418.008,373.821,418.391,373.582,418.606z"/>
			<g>
				<path style="fill:#4F1F37;" d="M360.413,423.124c-1.355,0.476-2.737,1.13-3.539,2.321c-0.256,0.38-0.448,0.835-0.376,1.287      c0.105,0.657,0.754,1.116,1.41,1.221c0.657,0.105,1.322-0.068,1.965-0.239c1.112-0.296,2.224-0.592,3.337-0.888      c0.106,1.902,0.603,3.78,1.452,5.486c0.432,0.868,1.086,1.779,2.049,1.881c0.71,0.076,1.408-0.34,1.824-0.92      c0.417-0.579,0.592-1.299,0.673-2.008c0.26-2.261-0.292-6.862-2.103-8.512C365.377,421.178,362.329,422.452,360.413,423.124z"/>
				<g>
					<path style="fill:#FFCC7A;" d="M364.235,422.362c-12.763-9.299-22.165-23.113-26.135-38.397       c-1.381-5.316-2.089-11.106-0.007-16.188c2.082-5.083,7.728-9.028,13.024-7.571c-0.487-6.526,3.646-13.063,9.507-15.976       c5.86-2.913,13.278-2.178,18.638,1.575c2.298-2.041,5.87-2.86,8.93-2.578c3.06,0.281,5.964,1.691,8.265,3.729       c4.645,4.114,6.742,10.894,5.232,16.911c3.189-1.869,7.538-1.737,10.986-0.405c3.448,1.332,6.224,4.296,7.327,7.824       c1.056,3.376,0.615,7.043-0.241,10.475c2.702-0.837,6.44,0.886,8.625,2.682c2.185,1.796,3.384,4.725,3.086,7.537       c-0.312,2.945-2.099,5.496-3.827,7.901c-0.564,0.785-1.129,1.57-1.693,2.355c3.714,5.405,4.961,12.921,2.9,19.147       c-2.06,6.227-7.151,11.37-13.356,13.494c-4.274,1.463-8.9,1.534-13.404,1.194C388.65,435.054,375.132,430.301,364.235,422.362z       "/>
					<g>
						<path style="fill:#4F1F37;" d="M367.134,425.434c-0.028,0-0.056-0.005-0.086-0.012c-0.157-0.049-0.247-0.215-0.201-0.373        c0.406-1.356,0.798-2.703,1.193-4.045c0.308-1.057,0.616-2.112,0.929-3.168c0.03-0.117,0.068-0.243,0.107-0.369        c0.037-0.126,0.075-0.254,0.107-0.378c0.091-0.322,0.185-0.633,0.278-0.941c0.157-0.523,0.31-1.043,0.446-1.566        c1.713-5.922,2.836-10.917,2.757-16.064c-0.03-1.772-0.24-3.515-0.626-5.182c-0.749-3.419-2.537-8.156-6.79-11.321        c-0.854-0.642-1.8-1.211-2.715-1.76c-1.723-1.036-3.501-2.108-4.766-3.712c-1.688-2.147-2.211-4.874-2.715-7.509        c-0.079-0.418-0.159-0.836-0.243-1.249c-0.492-2.5-1.454-6.013-4.138-7.659c-0.14-0.086-0.184-0.271-0.098-0.411        c0.086-0.14,0.268-0.187,0.411-0.098c2.885,1.769,3.898,5.441,4.412,8.048c0.084,0.415,0.163,0.836,0.245,1.256        c0.49,2.565,0.999,5.219,2.596,7.252c1.197,1.515,2.852,2.512,4.605,3.567c0.927,0.558,1.886,1.137,2.764,1.795        c3.482,2.591,5.91,6.627,7.016,11.668c0.392,1.704,0.609,3.49,0.64,5.303c0.079,5.222-1.053,10.266-2.778,16.232        c-0.135,0.521-0.292,1.048-0.451,1.578c-0.094,0.308-0.185,0.614-0.273,0.924c-0.03,0.126-0.072,0.261-0.112,0.397        c-0.038,0.119-0.072,0.238-0.103,0.355c-0.315,1.067-0.623,2.119-0.934,3.177c-0.392,1.342-0.787,2.689-1.19,4.05        C367.381,425.35,367.262,425.434,367.134,425.434z"/>
						<path style="fill:#4F1F37;" d="M370.082,415.045c-0.072,0-0.147-0.026-0.203-0.08c-0.121-0.114-0.133-0.299-0.019-0.42        c0.014-0.016,0.093-0.079,0.112-0.091c4.391-3.172,9.708-3.84,13.443-3.84c0.035,0,0.072,0,0.107,0        c2.379,0.007,4.984,0.266,8.2,0.815c1.515,0.245,3.055,0.541,4.542,0.826l1.412,0.268c3.52,0.651,6.937,1.134,10.011-0.051        c2.14-0.815,3.828-2.325,5.618-3.926c0.801-0.714,1.627-1.457,2.491-2.119c2.967-2.311,6.512-3.826,10.25-4.381        c0.182-0.03,0.315,0.091,0.341,0.252c0.023,0.163-0.089,0.315-0.252,0.341c-3.637,0.539-7.084,2.012-9.972,4.262        c-0.847,0.651-1.667,1.382-2.46,2.091c-1.751,1.566-3.56,3.186-5.803,4.038c-3.214,1.237-6.723,0.745-10.334,0.082        l-1.414-0.271c-1.485-0.285-3.018-0.579-4.528-0.824c-3.186-0.542-5.758-0.798-8.102-0.805c-0.037,0-0.072,0-0.107,0        c-3.646,0-8.83,0.646-13.043,3.688c-0.002,0.002-0.063,0.047-0.065,0.049C370.245,415.012,370.164,415.045,370.082,415.045z"/>
						<path style="fill:#4F1F37;" d="M391.149,400.239c1.479-1.425,4.177-0.87,5.362,0.794c1.193,1.686,1.027,4.046,0.082,5.842        c-0.959,1.827-2.582,3.2-4.245,4.385c-0.225,0.154-0.45,0.308-0.674,0.462c-2.689-0.457-5.415-0.8-8.151-0.811        c-4.687-0.016-9.542,1.013-13.324,3.745c1.528-5.288,2.85-10.657,2.765-16.144c-0.03-1.761-0.234-3.512-0.634-5.246        c1.479-2.514,3.294-4.865,5.362-6.342c0.561-0.423,1.214-0.802,1.908-0.916c1.728-0.272,3.318,1.174,3.861,2.808        c0.527,1.664,0.263,3.451-0.002,5.163c1.205-2.139,3.05-3.894,5.228-4.98c2.133-1.07,5.36-1.104,6.228,1.1        c0.375,0.932,0.176,1.963-0.076,2.911C394.107,395.644,392.846,398.132,391.149,400.239z"/>
					</g>
				</g>
			</g>
		</g>
		<path style="fill:#FFFFFF;" d="M159.409,91.234l0.28,0.153l-0.28,0.153c-6.318,0.9-9.478,5.003-10.877,10.877l-0.153,0.281    l-0.154-0.281c-1.51-6.04-4.948-9.589-10.877-10.877l-0.281-0.153l0.281-0.153c5.486-1.621,9.478-5.17,10.877-10.877l0.154-0.28    l0.153,0.28C149.875,85.454,152.536,90.167,159.409,91.234z"/>
		<path style="fill:#FFFFFF;" d="M418.162,113.203l0.281,0.153l-0.281,0.154c-6.318,0.9-9.478,5.003-10.877,10.877l-0.154,0.281    l-0.153-0.281c-1.51-6.04-4.948-9.589-10.877-10.877l-0.281-0.154l0.281-0.153c5.486-1.621,9.478-5.17,10.877-10.877l0.153-0.281    l0.154,0.281C408.628,107.424,411.29,112.137,418.162,113.203z"/>
		<path style="fill:#FFFFFF;" d="M447.454,345.105l0.281,0.153l-0.281,0.153c-6.318,0.9-9.478,5.003-10.877,10.877l-0.153,0.281    l-0.153-0.281c-1.51-6.04-4.948-9.589-10.877-10.877l-0.281-0.153l0.281-0.153c5.486-1.621,9.478-5.17,10.877-10.877l0.153-0.281    l0.153,0.281C437.921,339.325,440.582,344.038,447.454,345.105z"/>
		<path style="fill:#FFFFFF;" d="M71.347,246.638l0.391,0.214l-0.391,0.214c-8.802,1.254-13.205,6.971-15.155,15.155l-0.214,0.391    l-0.214-0.391c-2.104-8.416-6.893-13.36-15.155-15.155l-0.391-0.214l0.391-0.214c7.643-2.258,13.205-7.202,15.155-15.155    l0.214-0.391l0.214,0.391C58.064,238.586,61.772,245.152,71.347,246.638z"/>
		<g>
			<path style="fill:#90D3D0;" d="M183.656,479.771c-2.534-0.836-5.067-1.769-7.553-2.725c-1.219-0.454-2.414-0.909-3.609-1.41     c-12.716-5.043-24.858-11.186-36.379-18.285c-1.315-0.813-2.629-1.626-3.92-2.462c-1.195-0.765-2.39-1.554-3.561-2.342     c-18.333-12.31-34.921-27.129-49.095-43.956c-0.789-0.884-1.53-1.793-2.247-2.701c-0.645-0.765-1.291-1.554-1.912-2.342     c-0.072-0.024-0.119-0.072-0.167-0.143c-0.024,0-0.024,0,0-0.048c-1.793-2.199-3.537-4.446-5.211-6.717     c-0.048,0.167-0.048,0.311-0.071,0.478c-0.048-0.263-0.119-0.526-0.167-0.789c-1.195-5.473-1.864-11.043-2.295-16.659     c-0.048-0.622-0.095-1.267-0.119-1.889c-0.024-0.048-0.024-0.096,0-0.143c-0.168-2.271-0.287-4.541-0.382-6.812     c-0.86-19.815,0.358-35.949,2.247-55.334c0.096-1.004,0.191-2.008,0.287-3.012c0.191,0.048,0.358,0.096,0.55,0.167     c8.294,2.366,16.23,5.641,23.759,9.704v0.024c0.693,0.335,1.386,0.717,2.079,1.1c1.793,1.004,3.561,2.055,5.306,3.155     c0.287,0.167,0.574,0.358,0.86,0.549c8.175,5.163,15.799,11.234,22.827,17.998c0.621,0.598,1.243,1.195,1.888,1.817     c10.78,10.708,20.054,23.065,27.535,36.236c4.732,8.366,8.82,17.042,12.31,25.957c0.574,1.41,1.099,2.82,1.625,4.255     C176.103,434.668,180.859,457.16,183.656,479.771z"/>
			<path style="fill:#4F1F37;" d="M163.626,458.618c4.111,6.167,8.27,12.31,12.477,18.429c-1.219-0.454-2.414-0.909-3.609-1.41     c-3.848-5.617-7.672-11.282-11.449-16.946c-0.526-0.741-1.028-1.482-1.506-2.223c-7.123-10.612-14.198-21.273-21.225-31.957     c-0.598-0.908-1.195-1.793-1.769-2.701c-6.262-9.513-12.453-19.05-18.596-28.611c-0.597-0.908-1.171-1.793-1.745-2.701     c-9.442-14.7-18.787-29.471-28.013-44.243c-0.311-0.502-0.621-1.004-0.932-1.506c-6.071-9.752-12.094-19.504-18.046-29.256     c-0.884-1.434-1.745-2.892-2.63-4.326c-0.311-0.526-0.143-1.195,0.359-1.506c0.526-0.311,1.195-0.143,1.506,0.358     c0.526,0.884,1.076,1.745,1.601,2.629c6.119,10.015,12.286,20.054,18.524,30.045c0.263,0.454,0.549,0.932,0.86,1.386     c0.884,1.458,1.793,2.916,2.725,4.374c0.717,1.147,1.434,2.294,2.151,3.442c7.84,12.525,15.775,25.026,23.759,37.502v0.024     c0.621,0.956,1.243,1.888,1.864,2.868c13.839,21.512,27.917,42.904,42.187,64.082     C162.574,457.112,163.076,457.877,163.626,458.618z"/>
			<path style="fill:#4F1F37;" d="M118.816,393.412c-0.094,0-0.188-0.014-0.281-0.036c-8.394-2.233-16.806-4.495-25.215-6.753     c-8.559-2.301-17.118-4.6-25.661-6.87c-0.581-0.155-0.928-0.752-0.773-1.335c0.155-0.578,0.756-0.923,1.335-0.773     c8.543,2.27,17.104,4.571,25.665,6.872c8.005,2.15,16.009,4.301,23.997,6.427c1.899-15.614,4.313-31.349,7.181-46.793     c0.107-0.592,0.661-0.994,1.271-0.873c0.592,0.11,0.983,0.679,0.873,1.271c-2.934,15.808-5.394,31.924-7.309,47.902     c-0.037,0.313-0.208,0.594-0.471,0.772C119.246,393.348,119.033,393.412,118.816,393.412z"/>
			<path style="fill:#4F1F37;" d="M93.22,353.114c-0.601,0-1.09-0.487-1.092-1.09c-0.023-9.879,0.544-19.856,1.686-29.656     c0.073-0.599,0.629-0.991,1.211-0.958c0.599,0.071,1.028,0.612,0.958,1.211c-1.132,9.715-1.694,19.607-1.671,29.401     c0,0.601-0.487,1.092-1.09,1.094H93.22z"/>
			<path style="fill:#4F1F37;" d="M139.174,423.769c-0.119,0.43-0.478,0.693-0.86,0.741c-0.048,0.024-0.12,0.024-0.167,0.024     c-0.119,0-0.215-0.024-0.335-0.048c-19.122-6.095-38.674-11.425-58.273-15.895c-0.789-0.884-1.53-1.793-2.247-2.701     c19.91,4.422,39.821,9.752,59.253,15.919c0.645,0.191,1.29,0.383,1.936,0.598C139.055,422.574,139.365,423.195,139.174,423.769z"/>
			<path style="fill:#4F1F37;" d="M168.622,409.882c-0.119,1.171-0.263,2.366-0.382,3.561c-1.578,14.676-2.964,29.567-4.04,44.314     c-0.024,0.382-0.263,0.693-0.574,0.861c-0.167,0.096-0.335,0.143-0.526,0.143c-0.024,0-0.024,0-0.048,0     c-0.669-0.024-1.339-0.048-2.008-0.072c-8.318-0.311-16.684-0.741-24.93-1.339c-1.315-0.813-2.629-1.626-3.92-2.462     c8.987,0.693,18.189,1.219,27.344,1.577c0.86,0.024,1.697,0.072,2.557,0.096c0-0.072,0-0.119,0.024-0.191     c1.147-15.56,2.605-31.288,4.326-46.729c0.024-0.167,0.072-0.335,0.167-0.454c0.215-0.358,0.598-0.549,1.028-0.502     C168.239,408.758,168.669,409.284,168.622,409.882z"/>
		</g>
	</g>
</g>















</svg>
